<svg id="Layer_1" data-name="Layer 1" xmlns="http://www.w3.org/2000/svg" viewBox="0 0 61 66"><defs><style>.cls-1{fill:none;}.cls-1,.cls-2{stroke:#0e1019;stroke-linecap:round;stroke-linejoin:round;stroke-width:3px;}.cls-2{fill:#fff;}.cls-3{fill:#0e1019;}</style></defs><title>backpack_icon</title><g id="Desktop"><g id="homepage"><g id="Group-3"><path id="Rectangle-5" class="cls-1" d="M10,16H52V59a6,6,0,0,1-6,6H16a6,6,0,0,1-6-6Z" transform="translate(-0.5 -0.5)"/><rect id="Rectangle-5-2" data-name="Rectangle-5" class="cls-2" x="4.5" y="1.5" width="52" height="19"/><path id="Rectangle-6" class="cls-1" d="M2,39h8V60h0a8,8,0,0,1-8-8Z" transform="translate(-0.5 -0.5)"/><path id="Rectangle-8" class="cls-1" d="M18,2h6V34a3,3,0,0,1-3,3h0a3,3,0,0,1-3-3Z" transform="translate(-0.5 -0.5)"/><path id="Rectangle-8-Copy" class="cls-1" d="M38,2h6V34a3,3,0,0,1-3,3h0a3,3,0,0,1-3-3Z" transform="translate(-0.5 -0.5)"/><path id="Rectangle-7" class="cls-1" d="M16,42H27v9a3,3,0,0,1-3,3H19a3,3,0,0,1-3-3Z" transform="translate(-0.5 -0.5)"/><path id="Rectangle-7-Copy" class="cls-1" d="M35,42H46v9a3,3,0,0,1-3,3H38a3,3,0,0,1-3-3Z" transform="translate(-0.5 -0.5)"/><path id="Rectangle-6-Copy" class="cls-1" d="M52,39h8V52a8,8,0,0,1-8,8Z" transform="translate(-0.5 -0.5)"/><path id="Rectangle-9" class="cls-3" d="M16.5,29h9A1.5,1.5,0,0,1,27,30.5h0A1.5,1.5,0,0,1,25.5,32h-9A1.5,1.5,0,0,1,15,30.5h0A1.5,1.5,0,0,1,16.5,29Z" transform="translate(-0.5 -0.5)"/><path id="Rectangle-9-Copy" class="cls-3" d="M36.5,29h9A1.5,1.5,0,0,1,47,30.5h0A1.5,1.5,0,0,1,45.5,32h-9A1.5,1.5,0,0,1,35,30.5h0A1.5,1.5,0,0,1,36.5,29Z" transform="translate(-0.5 -0.5)"/></g></g></g></svg>