<svg id="Layer_1" data-name="Layer 1" xmlns="http://www.w3.org/2000/svg" viewBox="0 0 44.98 40.97"><defs><style>.cls-1{fill:#0e1019;}.cls-2{fill:#fccd77;}</style></defs><title>bee</title><path id="Fill-1" class="cls-1" d="M9.57,17.16,24.64,2.37a8.44,8.44,0,0,1,11.73,0,8.06,8.06,0,0,1,0,11.51L21.29,28.67Z" transform="translate(0 0)"/><path id="Fill-3" class="cls-2" d="M12.7,20.23,27.79,5.42a3.94,3.94,0,0,1,5.47,0,3.77,3.77,0,0,1,0,5.37L18.17,25.6Z" transform="translate(0 0)"/><path id="Fill-5" class="cls-1" d="M21.33,28.67,6.26,13.88a8,8,0,0,1,0-11.51A8.43,8.43,0,0,1,18,2.37L33.05,17.16Z" transform="translate(0 0)"/><path id="Fill-7" class="cls-2" d="M24.46,25.6,9.37,10.79a3.75,3.75,0,0,1,0-5.37,3.94,3.94,0,0,1,5.47,0L29.93,20.23Z" transform="translate(0 0)"/><path id="Fill-9" class="cls-2" d="M27.69,36.7H13.39a8.69,8.69,0,1,1,0-17.38h14.3a8.69,8.69,0,1,1,0,17.38" transform="translate(0 0)"/><path id="Fill-11" class="cls-1" d="M11.12,26.2a1.85,1.85,0,1,1-1.85-1.82,1.83,1.83,0,0,1,1.85,1.82" transform="translate(0 0)"/><path id="Fill-13" class="cls-1" d="M36.55,28a8.75,8.75,0,0,1-6.13,8.27V19.74A8.75,8.75,0,0,1,36.55,28ZM20.12,36.7h4.53V19.32H20.12Zm-5.76,0h-1a8.69,8.69,0,1,1,0-17.38h1ZM45,28l-1.17-1.15h0A48.83,48.83,0,0,1,39,21c-.13-.21-.28-.41-.42-.61h0a13.3,13.3,0,0,0-10.68-5.35H13.21A13.13,13.13,0,0,0,0,28H0A13.13,13.13,0,0,0,13.21,41H27.87A13.28,13.28,0,0,0,39,34.9a55.22,55.22,0,0,1,3.67-4.63Z" transform="translate(0 0)"/><polyline class="cls-2" points="19.94 19.32 19.94 36.7 24.46 36.7 24.46 19.32 19.94 19.32"/></svg>