<?xml version="1.0" encoding="UTF-8"?>
<svg width="1041px" height="508px" viewBox="0 0 1041 508" version="1.1" xmlns="http://www.w3.org/2000/svg" xmlns:xlink="http://www.w3.org/1999/xlink">
    <!-- Generator: Sketch 50.2 (55047) - http://www.bohemiancoding.com/sketch -->
    <title>Group 73</title>
    <desc>Created with Sketch.</desc>
    <defs>
        <filter x="-3.1%" y="-11.1%" width="106.2%" height="122.3%" filterUnits="objectBoundingBox" id="filter-1">
            <feOffset dx="0" dy="0" in="SourceAlpha" result="shadowOffsetOuter1"></feOffset>
            <feGaussianBlur stdDeviation="20" in="shadowOffsetOuter1" result="shadowBlurOuter1"></feGaussianBlur>
            <feColorMatrix values="0 0 0 0 0.0549019608   0 0 0 0 0.062745098   0 0 0 0 0.0980392157  0 0 0 0.3 0" type="matrix" in="shadowBlurOuter1" result="shadowMatrixOuter1"></feColorMatrix>
            <feMerge>
                <feMergeNode in="shadowMatrixOuter1"></feMergeNode>
                <feMergeNode in="SourceGraphic"></feMergeNode>
            </feMerge>
        </filter>
    </defs>
    <g id="Desktop" stroke="none" stroke-width="1" fill="none" fill-rule="evenodd">
        <g id="homepage" transform="translate(-879.000000, -4030.000000)">
            <g id="Group-5" filter="url(#filter-1)" transform="translate(-2.000000, 4070.000000)">
                <g id="Group-73">
                    <g transform="translate(922.000000, -57.000000)">
                        <polygon id="Fill-1" fill="#FCAB35" points="26 55 78 55 104 100.500116 78 146 26 146 0 100.500116"></polygon>
                        <polygon id="Fill-4" fill="#FCAB35" points="130 111 182 111 208 156.500116 182 202 130 202 104 156.500116"></polygon>
                        <polygon id="Fill-6" fill="#FCAB35" points="961 0 1012.99977 0 1039 45.5001165 1012.99977 91 961 91 935 45.5001165"></polygon>
                        <polygon id="Fill-9" fill="#FCAB35" points="961 111 1012.99977 111 1039 156.500116 1012.99977 202 961 202 935 156.500116"></polygon>
                        <polygon id="Fill-12" fill="#FCAB35" points="961 224 1012.99977 224 1039 269.500116 1012.99977 315 961 315 935 269.500116"></polygon>
                        <polygon id="Fill-15" fill="#FCAB35" points="961 335 1012.99977 335 1039 380.500116 1012.99977 426 961 426 935 380.500116"></polygon>
                        <polygon id="Fill-18" fill="#FCAB35" points="546 0 597.999769 0 624 45.5001165 597.999769 91 546 91 520 45.5001165"></polygon>
                        <polygon id="Fill-21" fill="#FCAB35" points="337 0 388.999769 0 415 45.5001165 388.999769 91 337 91 311 45.5001165"></polygon>
                        <polygon id="Fill-24" fill="#FCAB35" points="649.999827 55 701.999942 55 728 100.500116 701.999942 146 649.999827 146 624 100.500116"></polygon>
                        <polygon id="Fill-26" fill="#FCAB35" points="440.999769 55 492.999769 55 519 100.500116 492.999769 146 440.999769 146 415 100.500116"></polygon>
                        <polygon id="Fill-28" fill="#FCAB35" points="546 111 597.999769 111 624 156.500116 597.999769 202 546 202 520 156.500116"></polygon>
                        <polygon id="Fill-30" fill="#FCAB35" points="337 111 388.999769 111 415 156.500116 388.999769 202 337 202 311 156.500116"></polygon>
                        <polygon id="Fill-32" fill="#FCAB35" points="649.999827 167 701.999942 167 728 212.500116 701.999942 258 649.999827 258 624 212.500116"></polygon>
                        <polygon id="Fill-34" fill="#FCAB35" points="440.999769 167 492.999769 167 519 212.500116 492.999769 258 440.999769 258 415 212.500116"></polygon>
                        <polygon id="Fill-36" fill="#FCAB35" points="546 224 597.999769 224 624 269.500116 597.999769 315 546 315 520 269.500116"></polygon>
                        <polygon id="Fill-38" fill="#FCAB35" points="337 224 388.999769 224 415 269.500116 388.999769 315 337 315 311 269.500116"></polygon>
                        <polygon id="Fill-40" fill="#FCAB35" points="649.999827 280 701.999942 280 728 325.500116 701.999942 371 649.999827 371 624 325.500116"></polygon>
                        <polygon id="Fill-42" fill="#FCAB35" points="440.999769 280 492.999769 280 519 325.500116 492.999769 371 440.999769 371 415 325.500116"></polygon>
                        <polygon id="Fill-44" fill="#FCAB35" points="546 335 597.999769 335 624 380.500116 597.999769 426 546 426 520 380.500116"></polygon>
                        <polygon id="Fill-46" fill="#FCAB35" points="753.999827 0 805.999942 0 832 45.5001165 805.999942 91 753.999827 91 728 45.5001165"></polygon>
                        <polygon id="Fill-49" fill="#FCAB35" points="753.999827 111 805.999942 111 832 156.500116 805.999942 202 753.999827 202 728 156.500116"></polygon>
                        <polygon id="Fill-51" fill="#FCAB35" points="753.999827 224 805.999942 224 832 269.500116 805.999942 315 753.999827 315 728 269.500116"></polygon>
                        <polygon id="Fill-53" fill="#FCAB35" points="753.999827 335 805.999942 335 832 380.500116 805.999942 426 753.999827 426 728 380.500116"></polygon>
                        <polygon id="Fill-55" fill="#FCAB35" points="857 55 909 55 935 100.500116 909 146 857 146 831 100.500116"></polygon>
                        <polygon id="Fill-57" fill="#FCAB35" points="857 167 909 167 935 212.500116 909 258 857 258 831 212.500116"></polygon>
                        <polygon id="Fill-59" fill="#FCAB35" points="857 280 909 280 935 325.500116 909 371 857 371 831 325.500116"></polygon>
                        <polygon id="Fill-61" fill="#FCAB35" points="857 390 909 390 935 435.500116 909 481 857 481 831 435.500116"></polygon>
                        <polygon id="Fill-64" fill="#FCAB35" points="130 0 182 0 208 45.5001165 182 91 130 91 104 45.5001165"></polygon>
                        <polygon id="Fill-67" fill="#FCAB35" points="130 224 182 224 208 269.500116 182 315 130 315 104 269.500116"></polygon>
                        <polygon id="Fill-69" fill="#FCAB35" points="234 55 286 55 312 100.500116 286 146 234 146 208 100.500116"></polygon>
                        <polygon id="Fill-71" fill="#FCAB35" points="234 167 286 167 312 212.500116 286 258 234 258 208 212.500116"></polygon>
                        <g id="Group-4" stroke="#F99D23" stroke-linecap="round" stroke-linejoin="round" stroke-width="8">
                            <polygon id="Stroke-2" points="26.0444519 55.6069364 78.1333556 55.6069364 104.177807 100.787688 78.1333556 145.968208 26.0444519 145.968208 0 100.787688"></polygon>
                            <polygon id="Stroke-5" points="130.222259 111.213873 182.311163 111.213873 208.355615 156.394624 182.311163 201.575145 130.222259 201.575145 104.177807 156.394624"></polygon>
                            <polygon id="Stroke-7" points="960.866644 0 1012.95532 0 1039 45.1807515 1012.95532 90.3612717 960.866644 90.3612717 934.822193 45.1807515"></polygon>
                            <polygon id="Stroke-10" points="960.866644 111.213873 1012.95532 111.213873 1039 156.394624 1012.95532 201.575145 960.866644 201.575145 934.822193 156.394624"></polygon>
                            <polygon id="Stroke-13" points="960.866644 223.817919 1012.95532 223.817919 1039 268.998671 1012.95532 314.179191 960.866644 314.179191 934.822193 268.998671"></polygon>
                            <polygon id="Stroke-16" points="960.866644 335.031792 1012.95532 335.031792 1039 380.212543 1012.95532 425.393064 960.866644 425.393064 934.822193 380.212543"></polygon>
                            <polygon id="Stroke-19" points="545.544452 0 597.633125 0 623.677807 45.1807515 597.633125 90.3612717 545.544452 90.3612717 519.5 45.1807515"></polygon>
                            <polygon id="Stroke-22" points="337.188837 0 389.27751 0 415.322193 45.1807515 389.27751 90.3612717 337.188837 90.3612717 311.144385 45.1807515"></polygon>
                            <polygon id="Stroke-25" points="649.722086 55.6069364 701.811105 55.6069364 727.855615 100.787688 701.811105 145.968208 649.722086 145.968208 623.677807 100.787688"></polygon>
                            <polygon id="Stroke-27" points="441.366413 55.6069364 493.455317 55.6069364 519.5 100.787688 493.455317 145.968208 441.366413 145.968208 415.322193 100.787688"></polygon>
                            <polygon id="Stroke-29" points="545.544452 111.213873 597.633125 111.213873 623.677807 156.394624 597.633125 201.575145 545.544452 201.575145 519.5 156.394624"></polygon>
                            <polygon id="Stroke-31" points="337.188837 111.213873 389.27751 111.213873 415.322193 156.394624 389.27751 201.575145 337.188837 201.575145 311.144385 156.394624"></polygon>
                            <polygon id="Stroke-33" points="649.722086 166.820809 701.811105 166.820809 727.855615 212.001561 701.811105 257.182081 649.722086 257.182081 623.677807 212.001561"></polygon>
                            <polygon id="Stroke-35" points="441.366413 166.820809 493.455317 166.820809 519.5 212.001561 493.455317 257.182081 441.366413 257.182081 415.322193 212.001561"></polygon>
                            <polygon id="Stroke-37" points="545.544452 223.817919 597.633125 223.817919 623.677807 268.998671 597.633125 314.179191 545.544452 314.179191 519.5 268.998671"></polygon>
                            <polygon id="Stroke-39" points="337.188837 223.817919 389.27751 223.817919 415.322193 268.998671 389.27751 314.179191 337.188837 314.179191 311.144385 268.998671"></polygon>
                            <polygon id="Stroke-41" points="649.722086 279.424855 701.811105 279.424855 727.855615 324.605607 701.811105 369.786127 649.722086 369.786127 623.677807 324.605607"></polygon>
                            <polygon id="Stroke-43" points="441.366413 279.424855 493.455317 279.424855 519.5 324.605607 493.455317 369.786127 441.366413 369.786127 415.322193 324.605607"></polygon>
                            <polygon id="Stroke-45" points="545.544452 335.031792 597.633125 335.031792 623.677807 380.212543 597.633125 425.393064 545.544452 425.393064 519.5 380.212543"></polygon>
                            <polygon id="Stroke-47" points="753.899894 0 805.988913 0 832.033422 45.1807515 805.988913 90.3612717 753.899894 90.3612717 727.855615 45.1807515"></polygon>
                            <polygon id="Stroke-50" points="753.899894 111.213873 805.988913 111.213873 832.033422 156.394624 805.988913 201.575145 753.899894 201.575145 727.855615 156.394624"></polygon>
                            <polygon id="Stroke-52" points="753.899894 223.817919 805.988913 223.817919 832.033422 268.998671 805.988913 314.179191 753.899894 314.179191 727.855615 268.998671"></polygon>
                            <polygon id="Stroke-54" points="753.899894 335.031792 805.988913 335.031792 832.033422 380.212543 805.988913 425.393064 753.899894 425.393064 727.855615 380.212543"></polygon>
                            <polygon id="Stroke-56" points="856.688837 55.6069364 908.777741 55.6069364 934.822193 100.787688 908.777741 145.968208 856.688837 145.968208 830.644385 100.787688"></polygon>
                            <polygon id="Stroke-58" points="856.688837 166.820809 908.777741 166.820809 934.822193 212.001561 908.777741 257.182081 856.688837 257.182081 830.644385 212.001561"></polygon>
                            <polygon id="Stroke-60" points="856.688837 279.424855 908.777741 279.424855 934.822193 324.605607 908.777741 369.786127 856.688837 369.786127 830.644385 324.605607"></polygon>
                            <polygon id="Stroke-62" points="856.688837 390.638728 908.777741 390.638728 934.822193 435.81948 908.777741 481 856.688837 481 830.644385 435.81948"></polygon>
                            <polygon id="Stroke-65" points="130.222259 0 182.311163 0 208.355615 45.1807515 182.311163 90.3612717 130.222259 90.3612717 104.177807 45.1807515"></polygon>
                            <polygon id="Stroke-68" points="130.222259 223.817919 182.311163 223.817919 208.355615 268.998671 182.311163 314.179191 130.222259 314.179191 104.177807 268.998671"></polygon>
                            <polygon id="Stroke-70" points="234.400067 55.6069364 286.488971 55.6069364 312.533422 100.787688 286.488971 145.968208 234.400067 145.968208 208.355615 100.787688"></polygon>
                            <polygon id="Stroke-72" points="234.400067 166.820809 286.488971 166.820809 312.533422 212.001561 286.488971 257.182081 234.400067 257.182081 208.355615 212.001561"></polygon>
                        </g>
                    </g>
                </g>
            </g>
        </g>
    </g>
</svg>