<svg id="Layer_1" data-name="Layer 1" xmlns="http://www.w3.org/2000/svg" viewBox="0 0 251.45 251.23"><defs><style>.cls-1{fill:#fcab35;}.cls-2{fill:#f99d23;}.cls-3{fill:#ffedcc;}.cls-4{fill:#fff;}.cls-5{fill:#1e2547;}</style></defs><title>bskilled-logo</title><g id="Layer_2" data-name="Layer 2"><g id="Layer_1-2" data-name="Layer 1-2"><polygon class="cls-1" points="159.02 7.88 243.57 95.14 210.28 211.99 92.43 241.59 7.88 154.32 41.17 37.47 159.02 7.88"/><path class="cls-2" d="M92.43,249.46a7.88,7.88,0,0,1-5.66-2.39L2.22,159.8A7.87,7.87,0,0,1,.3,152.16L33.6,35.31a7.86,7.86,0,0,1,5.66-5.48L157.1.24a7.87,7.87,0,0,1,7.58,2.15l84.55,87.27a7.87,7.87,0,0,1,1.92,7.64l-33.3,116.85a7.86,7.86,0,0,1-5.66,5.48L94.35,249.23A8.27,8.27,0,0,1,92.43,249.46ZM16.7,152.11l78.22,80.73,109-27.38,30.81-108.1-78.2-80.73L47.5,44Z" transform="translate(0 0)"/><path class="cls-3" d="M125.91,49.11a6.87,6.87,0,0,0-8.34-5h0L65.23,57.21a6.92,6.92,0,0,0-5,4.8L45.51,113.9a6.91,6.91,0,0,0,4.78,8.52,6.83,6.83,0,0,0,1.85.26,6.92,6.92,0,0,0,6.63-5l13.67-48L120.9,57.47A6.91,6.91,0,0,0,125.91,49.11Z" transform="translate(0 0)"/><circle class="cls-4" cx="217.54" cy="217.52" r="28.9"/><path class="cls-5" d="M217.54,251.23a33.71,33.71,0,1,1,33.7-33.72h0A33.76,33.76,0,0,1,217.54,251.23Zm0-57.8a24.1,24.1,0,1,0,24.09,24.11v0A24.12,24.12,0,0,0,217.54,193.43Z" transform="translate(0 0)"/><path class="cls-1" d="M217.2,228.72a4.79,4.79,0,0,1-3.13-1.16l-8-6.89a4.8,4.8,0,0,1,6.26-7.28l4.33,3.72,7.21-8.53a4.8,4.8,0,0,1,7.34,6.19h0L220.87,227a4.76,4.76,0,0,1-3.28,1.69Z" transform="translate(0 0)"/></g></g></svg>