<svg id="Laag_1" data-name="Laag 1" xmlns="http://www.w3.org/2000/svg" viewBox="0 0 112.32 21.51"><defs><style>.cls-1{fill:#c0c2ce;}</style></defs><title>compas</title><path class="cls-1" d="M9.7,3.7A4.24,4.24,0,0,0,5.9,5.6a8.62,8.62,0,0,0-1.4,5.2c0,4.6,1.7,6.9,5.2,6.9A17.52,17.52,0,0,0,15,16.6v3.7a14.87,14.87,0,0,1-5.7,1.1,8.73,8.73,0,0,1-6.9-2.7,12.3,12.3,0,0,1-2.4-8A12.87,12.87,0,0,1,1.2,5,8.68,8.68,0,0,1,4.6,1.3,9.23,9.23,0,0,1,9.7,0a13.91,13.91,0,0,1,6.1,1.5L14.4,5c-.8-.4-1.6-.7-2.3-1A6.5,6.5,0,0,0,9.7,3.7Z" transform="translate(0.02 0.01)"/><path class="cls-1" d="M51.2,21H46.9V11.8a4.8,4.8,0,0,0-.6-2.6,2,2,0,0,0-1.8-.9,2.62,2.62,0,0,0-2.4,1.2,7.7,7.7,0,0,0-.8,4V21H37V5.2h3.3l.6,2h.2a4.22,4.22,0,0,1,1.8-1.7,6,6,0,0,1,2.8-.6c2.4,0,4,.8,4.8,2.3h.4a4.52,4.52,0,0,1,1.9-1.7,6.44,6.44,0,0,1,2.8-.6,5.65,5.65,0,0,1,4.1,1.4,6.08,6.08,0,0,1,1.4,4.4V21H56.8V11.8a4.8,4.8,0,0,0-.6-2.6,2,2,0,0,0-1.8-.9A2.91,2.91,0,0,0,52,9.4a6.82,6.82,0,0,0-.8,3.6Z" transform="translate(0.02 0.01)"/><path class="cls-1" d="M80.1,6.8A6.36,6.36,0,0,1,78,11.9a8.83,8.83,0,0,1-5.9,1.8H70.2V21H65.8V.3h6.6c2.5,0,4.4.5,5.7,1.6A6,6,0,0,1,80.1,6.8ZM70.2,10h1.4a4.7,4.7,0,0,0,3-.8,2.62,2.62,0,0,0,1-2.3,3.18,3.18,0,0,0-.8-2.3,3.72,3.72,0,0,0-2.6-.7h-2Z" transform="translate(0.02 0.01)"/><path class="cls-1" d="M93.8,21,93,18.8h-.1a6.2,6.2,0,0,1-2.2,1.9,6.83,6.83,0,0,1-3,.5,4.83,4.83,0,0,1-3.6-1.3,4.9,4.9,0,0,1-1.3-3.7,4.09,4.09,0,0,1,1.8-3.7,10.34,10.34,0,0,1,5.3-1.3l2.7-.1v-.7A2.27,2.27,0,0,0,90.49,8,2.68,2.68,0,0,0,90,8a12.3,12.3,0,0,0-4.5,1.1L84.1,6.2a12.22,12.22,0,0,1,6.1-1.4,7.73,7.73,0,0,1,4.9,1.4,5.14,5.14,0,0,1,1.7,4.2V21Zm-1.3-7.3-1.7.1a5,5,0,0,0-2.8.7,2.07,2.07,0,0,0-.9,1.9q0,1.8,2.1,1.8a3.24,3.24,0,0,0,2.4-.9,3,3,0,0,0,.9-2.3Z" transform="translate(0.02 0.01)"/><path class="cls-1" d="M112.3,16.3a4.4,4.4,0,0,1-1.7,3.7,8.65,8.65,0,0,1-5.1,1.3,21.63,21.63,0,0,1-2.9-.2,15.62,15.62,0,0,1-2.3-.7V16.8a10.72,10.72,0,0,0,2.7.9,9.2,9.2,0,0,0,2.7.4c1.6,0,2.4-.5,2.4-1.4a1.12,1.12,0,0,0-.3-.8,3.44,3.44,0,0,0-1.1-.7,12.36,12.36,0,0,0-2-.9,16.07,16.07,0,0,1-2.7-1.4,2.91,2.91,0,0,1-1.2-1.5,4.74,4.74,0,0,1-.4-2.1A3.84,3.84,0,0,1,102,6a7.64,7.64,0,0,1,4.6-1.2A13.68,13.68,0,0,1,112.2,6l-1.3,3.1c-.8-.3-1.5-.6-2.2-.8a7.46,7.46,0,0,0-2.1-.3c-1.3,0-1.9.3-1.9,1a1.22,1.22,0,0,0,.6,1,16.77,16.77,0,0,0,2.7,1.3,16.07,16.07,0,0,1,2.7,1.4,3.7,3.7,0,0,1,1.3,1.5A12.36,12.36,0,0,1,112.3,16.3Z" transform="translate(0.02 0.01)"/><path class="cls-1" d="M28.7,10.7c0,.1,0,.2-.1.2-.6,1-1.2,2-1.7,3a.09.09,0,0,1-.1.1h0c-1,.6-2,1.2-3.1,1.8a.28.28,0,1,1-.4-.4h0c.3-.5.5-.9.8-1.4s.6-1.1.9-1.6c0-.1.1-.1.2-.2,1-.6,2-1.1,3-1.7C28.5,10.3,28.7,10.4,28.7,10.7Zm-2.1,2.4a.6.6,0,0,0-1.2,0h0a.58.58,0,0,0,.56.6h0A.65.65,0,0,0,26.6,13.1Z" transform="translate(0.02 0.01)"/><path class="cls-1" d="M26,21.5a8.25,8.25,0,1,1,8.3-8.3A8.26,8.26,0,0,1,26,21.5ZM26,8.3a5,5,0,1,0,5,4.9A5,5,0,0,0,26,8.3Z" transform="translate(0.02 0.01)"/></svg>