<svg id="Layer_1" data-name="Layer 1" xmlns="http://www.w3.org/2000/svg" viewBox="0 0 819.2 604.12"><defs><style>.cls-1{fill:#c0c2ce;}.cls-2{fill:#d8d8d8;}.cls-3{fill:#fff;}</style></defs><title>cronos</title><path class="cls-1" d="M447.9,603.1c-5.8,0-11.7.1-17.5,0-11.1-.2-18.6-6-20-16.9-1-7.8-1.3-15.9.6-23.8,1.8-7.4,6.6-11.7,13.9-13.2a52.68,52.68,0,0,1,11.9-1c10,.1,20,0,30,0a9.43,9.43,0,0,1,4.4.6,3.56,3.56,0,0,1,0,6.8c-1.6.8-3.3.6-4.9.6H433.8c-8.9,0-13.6,3.6-14.5,12.3-.6,5.9-.9,11.9.7,17.8,1.5,5.7,5.1,8.8,11,8.9,10.2.1,20.3-.1,30.5.1,3.7.1,5.1-1.8,5.5-5a20.44,20.44,0,0,0,0-3.5c-.1-5.1-1.5-6.6-6.5-6.7s-10,0-15,0c-2.6,0-5.2-.3-5.9-3.4-.5-2.4,2.4-4.5,6-4.5,6.3-.1,12.7-.1,19,0,8.2.2,11.4,3.5,11.5,11.7,0,3.2.1,6.3,0,9.5-.2,6.1-3.5,9.6-9.6,9.7-6.3.1-12.5,0-18.6,0Z" transform="translate(0.1 -0.28)"/><path class="cls-1" d="M705.9,603.1c-7.3,0-14.7.1-22,0-6.6-.1-9.9-3.3-9.9-9.8q-.15-17.25,0-34.5c.1-7.3,3.4-10.6,10.8-10.7,14.5-.1,29,0,43.4,0a7.83,7.83,0,0,1,3.4.5,3.63,3.63,0,0,1,2.3,3.5,3.45,3.45,0,0,1-2.2,3.1c-1.7.9-3.5.8-5.4.8H689.8c-5.9,0-6.9,1-6.9,7,0,1.2-.1,2.3,0,3.5.3,4.3,1.6,5.5,5.9,5.5h33.5a11.82,11.82,0,0,1,4.9.6c1.7.8,2.9,1.8,2.6,3.8a3.82,3.82,0,0,1-3.2,3.4,17.85,17.85,0,0,1-4,.1h-33c-5.5,0-6.6,1.2-6.7,6.8v2.5c.1,4.7,1.1,5.8,6,5.8h36a19.82,19.82,0,0,1,6.4.9,3.39,3.39,0,0,1,2.6,3.7c0,2.1-1.5,2.9-3.1,3.3a13.48,13.48,0,0,1-3.5.2c-7.1.1-14.2.1-21.4,0Z" transform="translate(0.1 -0.28)"/><path class="cls-1" d="M819,434.1c-1.5,1.1-1.3,2.9-2,4.4-4.9,10.1-12.7,16.5-24.1,16.7-22,.3-44,.1-66,.1-4.3,0-7.3-1.8-9-5.8a9.49,9.49,0,0,1,1.5-10.3c2.1-2.7,5.1-3.3,8.5-3.3,20,.1,40,0,60,0a20.7,20.7,0,0,0,5-.4c4.5-1,7-4.4,6.6-8.7s-3.4-7.1-8.1-7.2c-8.7-.1-17.3,0-26-.1-8-.1-16,.5-24-.4a27.53,27.53,0,0,1-24.2-28.7c.7-14.5,12.6-26.3,26.8-26.4,21.5-.1,43,.1,64.5-.1,5,0,7.9,2.6,10.6,6.1v7c-2.2,6.4-4.8,8.3-12.8,8.4-16.5.2-32.9,0-49.4.1-3.7,0-7.3-.1-11,.1s-6.5,1.5-7.1,5.6c-.5,3.5,2,6.2,6.2,7.1a30.19,30.19,0,0,0,6,.3h39.4c15.6,0,25.7,8.3,28.6,23.5Z" transform="translate(0.1 -0.28)"/><path class="cls-1" d="M0,385.1c1.5-1,1.4-2.9,2.1-4.3,5.3-10.6,13.5-16.6,25.6-16.7,21.3-.1,42.6,0,63.9,0,5.3,0,8.8,2.7,10,7.3a9.89,9.89,0,0,1-4.4,10.8c-2.2,1.4-4.7,1.4-7.2,1.4H31.1c-9.2,0-11.6,2.4-11.6,11.4v29.5c0,8.7,2.7,11.4,11.3,11.4,20.3,0,40.6.2,60.9-.1,6.7-.1,12.5,6.8,9.3,13.8-1.6,3.5-4.2,5.6-8.1,5.7-22.8,0-45.6.4-68.4-.2-10.7-.3-18-7-22.6-16.5-.7-1.5-.5-3.3-2-4.4C0,417.8,0,401.5,0,385.1Z" transform="translate(0.1 -0.28)"/><path class="cls-2" d="M819,526.1c-.3,0-.7-.1-1-.1a27.86,27.86,0,0,1,0-19.9h1Z" transform="translate(0.1 -0.28)"/><path class="cls-1" d="M468.3,156.2H451c-2.8,0-3.4,2.5-4.5,4.2-6.3,10.1-15.5,16.1-26.9,19.1-25.3,6.7-51.3-12.6-53.9-37.9-2.4-23.5,14.1-44,33.9-47.6,12.2-2.2,10-3,10.2,7.7v2c0,5.6,0,5.6-5.6,6.9-11.2,2.6-19.4,11.1-21.2,21.9-1.8,10.5,3.3,21.2,13,27.2,15.7,9.7,36.3.1,39.7-18.9.7-3.8,2.1-4.6,5.4-4.5,16.3.1,32.7,0,49,.1,4.8,0,5,.1,4.8,5.1A80.62,80.62,0,0,1,483,180.6c-12.9,21.6-32,34.9-56.3,40.1-21.5,4.6-42,1-60.9-10.2-21.4-12.7-34.8-31.6-40-55.8-4.8-22-1.1-42.9,10.6-62.3a83,83,0,0,1,47.1-37.1c2.2-.7,3.8-1.5,3.7-4.4-.2-6.8-.1-13.6-.1-20.9-7.4.5-14,3.2-20.4,6-30.8,13.6-51.9,36.4-61.7,68.6-10.9,35.8-4.6,69.1,17.9,98.9,17.4,23,40.9,36.9,69.3,41.5,30.6,4.9,58.9-2.3,83.6-21,23.1-17.5,36.9-41.1,42-69.6.8-4.5,1.8-9.2,1.3-13.8-.4-3.4,1.1-4.3,4.3-4.2,6,.2,12,.3,18,0,3.6-.2,4.9.8,4.8,4.7a133.34,133.34,0,0,1-11.1,50.2,131.83,131.83,0,0,1-30.5,44c-20.3,19.2-44.1,31.6-71.8,36.2-35.7,5.9-68.8-.9-98.9-20.8-31.6-20.9-51.3-50.5-58.4-87.5-7.9-41.2,1.5-79,27.6-111.9,20.6-26,47.8-41.8,80.2-48.6A101.18,101.18,0,0,1,406,.3c2.9.1,4.1.7,4.1,3.9-.1,21.8-.1,43.7,0,65.5,0,2.3-.6,3.4-3.1,4-3.1.8-6.2.5-9.4,1.2C371.1,81,354.2,97.1,348,123.6c-4.4,18.9-.1,36.2,11.5,51.6,9.5,12.7,22.2,20.3,37.6,23.6,29.6,6.3,60.6-10.3,71.4-39.1A4.35,4.35,0,0,0,468.3,156.2Z" transform="translate(0.1 -0.28)"/><path class="cls-1" d="M818,506.1V526c-1.8,0-3.7.1-5.5.1H417.1c-1.3,0-2.7-.1-4,0-2.5.2-3.2-1-3.1-3.3q.15-6.75,0-13.5c-.1-2.3.7-3.5,3.1-3.3a20.85,20.85,0,0,0,2.5,0H815C816,506.1,817,506.1,818,506.1Z" transform="translate(0.1 -0.28)"/><path class="cls-1" d="M221.5,419.6c7.9,7,15.3,13.4,22.6,19.9,1.9,1.7,3.5,3.5,3.9,6.1.7,4.9-.9,8.7-4.7,10.6-4.1,2-8.1,1.7-11.6-1.4q-18.3-15.9-36.5-31.9a11.15,11.15,0,0,0-8.5-3.3c-7.5.2-14.9.1-23,.1v21.7c0,2.2.1,4.3,0,6.5-.4,5.8-4.5,9.5-10.2,9.4a9.37,9.37,0,0,1-9.4-9.6c-.1-12.5,0-25,0-37.5v-35c0-7.6,3.5-11,11-11,20.5,0,41,.4,61.5-.1,15.2-.4,27.6,10.4,29.2,24.4C247.6,403.6,238.3,415.9,221.5,419.6Z" transform="translate(0.1 -0.28)"/><path class="cls-1" d="M336.9,455.3c-7.8,0-15.7.1-23.5,0-15.2-.1-26.9-11.3-27.3-26.6-.3-12.8-.4-25.7,0-38.5a27,27,0,0,1,27-26c15.8-.1,31.7-.1,47.5,0a27.49,27.49,0,0,1,27.3,27.4c.1,12.2.1,24.3,0,36.5A27.36,27.36,0,0,1,361,455.3C352.9,455.4,344.9,455.3,336.9,455.3Z" transform="translate(0.1 -0.28)"/><path class="cls-1" d="M625,455.3c-8,0-16,.1-24,0a27,27,0,0,1-27.1-26.9c-.1-12.3-.1-24.7,0-37a27.08,27.08,0,0,1,27.4-27.2c15.5-.1,31,0,46.5,0s27.6,11.6,28,27.2c.3,12.3.3,24.7,0,37-.4,15.4-12.5,26.8-27.8,26.9Z" transform="translate(0.1 -0.28)"/><path class="cls-1" d="M511.8,422.8V373c0-6.8,3.7-10.9,9.6-11s10,3.8,10,10.6q.15,36,0,72c0,4.5-1.4,8.4-5.9,10.1-4.2,1.6-8,.7-11.5-2.4-19.8-17.4-39.6-34.6-59.5-51.9-1.6-1.4-3.2-2.8-5.7-4.8v5.1c0,15.5.1,31,0,46.5,0,8.1-7.7,12.8-14.6,9a9.26,9.26,0,0,1-4.9-8.7V374c0-4.2,1.8-7.4,5.8-9,4.3-1.7,8-.7,11.5,2.4,20.2,17.7,40.4,35.2,60.6,52.8C508.6,421.1,509.5,422.7,511.8,422.8Z" transform="translate(0.1 -0.28)"/><path class="cls-3" d="M164,400V384.3c1.2-.9,2.4-.7,3.6-.7H216a20.9,20.9,0,0,1,2.5.1c5,.6,8.2,4,8.1,8.4s-3.5,7.8-8.6,7.8c-10.1.1-20.3,0-30.4,0C179.9,400,172.3,400,164,400Z" transform="translate(0.1 -0.28)"/><path class="cls-3" d="M337,383.7c7.2,0,14.3-.1,21.5,0,6.9.1,9.6,2.9,9.6,9.8,0,11,.1,22,0,32.9,0,6.4-3,9.5-9.5,9.5-14.5.1-28.9.1-43.4,0-6.7,0-9.6-3.1-9.7-9.9q-.15-16.2,0-32.4c0-7.1,2.8-9.8,10-9.9S329.9,383.7,337,383.7Z" transform="translate(0.1 -0.28)"/><path class="cls-3" d="M625,383.7c7.2,0,14.3-.1,21.5,0,6.8.1,9.5,2.9,9.6,9.8v32.9c0,6.1-2.9,9.4-9.1,9.4q-22.2.15-44.4,0c-6-.1-9.2-3.4-9.3-9.5-.2-11.1-.2-22.3,0-33.4.1-6.4,3.2-9.2,9.8-9.3C610.3,383.6,617.7,383.7,625,383.7Z" transform="translate(0.1 -0.28)"/><path class="cls-1" d="M552.6,588c-1.5-2.4-4.5-4.1-3.9-7.7,3.3-2.1,7.6-2.6,10.1-6a16.19,16.19,0,0,0,1.8-17c-2.8-6.1-8.5-8.9-15-9-12.2-.3-24.3-.2-36.5,0-7,.1-10.2,3.6-10.2,10.7v38.5c0,6.1.7,6.7,7,6.8,2.2-1.1,2-3.2,2-5.2,0-4.3-.1-8.6,0-13,.1-4.2,1.7-5.7,5.8-5.8,4.3-.1,8.7.4,12.9-.1,6.7-.9,10.7,2.3,14.5,7.3,4.3,5.8,7.9,12.3,13.7,16.9,6.4-.6,7.4-2.6,3.8-7.8C556.9,593.6,554.5,591,552.6,588ZM543,572.2H529c-5.2,0-10.3-.1-15.5,0-3.7.1-5.1-1.9-5.4-5.1a33.67,33.67,0,0,1,0-5.5c.3-4.3,1.5-5.6,5.9-5.6,10,0,20-.1,30,0,5.7,0,8.9,2.9,9.1,7.7.2,5.1-3.1,8.1-9,8.3A2.34,2.34,0,0,1,543,572.2Z" transform="translate(0.1 -0.28)"/><path class="cls-1" d="M650.6,565.1c-.9-7.6-4.9-14.1-13.2-15.6a117.39,117.39,0,0,0-40.1-.1,15.61,15.61,0,0,0-13,12.4,62.7,62.7,0,0,0,0,27.6c1.3,5.9,5,9.7,10.8,12,7.2,2.8,14.5,1.2,20,1.7,6.5,0,11.3.1,16.2,0,10.2-.3,16.8-5.6,19-15.6C651.9,580.1,651.5,572.5,650.6,565.1Zm-9.5,20.8c-1.6,5.9-5.3,9.1-11.3,9.3-4.2.1-8.3,0-12.5,0s-8.7.1-13,0c-7.2-.3-11.3-4.5-11.4-11.7q-.15-7.5,0-15c.1-7.9,4.5-12.2,12.5-12.3,7.3-.1,14.7,0,22,0,8.8,0,13.5,3.8,14.3,12.5C642.3,574.3,642.6,580.1,641.1,585.9Z" transform="translate(0.1 -0.28)"/><path class="cls-1" d="M818.1,560.1c-1.6-7.3-7.5-11.7-16.7-11.9-11.1-.2-22.3-.1-33.4,0-7.6.1-10.8,3.5-10.9,11.1-.1,12.6,0,25.3,0,37.9,0,5.9,1,6.9,6.9,7,2.7-1.8,2.8-4.7,2.9-7.5.1-3.3,0-6.6,0-10,0-6,.5-6.6,6.5-6.6,9.3,0,18.6.2,27.9-.1,7.9-.3,16.4-4.5,16.7-11.8C818.1,565.5,818.1,562.8,818.1,560.1Zm-19.8,12.1h-12c-5,0-10-.1-15,0-3.2.1-4.5-1.3-4.5-4.4.1-13.6-1.3-11.5,11.2-11.6,6.8-.1,13.6,0,20.4,0,7.4,0,10.6,2.5,10.5,8.2C809,569.8,805.9,572.1,798.3,572.2Z" transform="translate(0.1 -0.28)"/></svg>