<svg id="Layer_1" data-name="Layer 1" xmlns="http://www.w3.org/2000/svg" viewBox="0 0 27.9 26.77"><defs><style>.cls-1{fill:#ffead9;}</style></defs><title>linkedin_logo</title><g id="Layer_2" data-name="Layer 2"><g id="Layer_2-2" data-name="Layer 2-2"><path id="LinkedIn" class="cls-1" d="M28,16.41V26.77H22V17.11c0-2.43-.87-4.08-3-4.08a3.26,3.26,0,0,0-3.08,2.19,4,4,0,0,0-.2,1.46V26.77h-6s.08-16.36,0-18.06h6v2.62h0v-.06a6,6,0,0,1,5.41-3C25,8.29,28,10.87,28,16.41ZM3.42,0a3.13,3.13,0,0,0-.57,6.23h.49A3.13,3.13,0,0,0,3.91,0Zm-3,26.76h6V8.71h-6Z" transform="translate(-0.12 0)"/></g></g></svg>