<svg id="Layer_1" data-name="Layer 1" xmlns="http://www.w3.org/2000/svg" viewBox="0 0 170.1 119.29"><defs><style>.cls-1{fill:#c0c2ce;}.cls-2{fill:#999dad;}</style></defs><title>poolstok</title><path class="cls-1" d="M123.6,102a5.1,5.1,0,0,0-5.1,5.3,5.19,5.19,0,0,0,5.1,5.4,5.1,5.1,0,0,0,5.1-5.3A5.19,5.19,0,0,0,123.6,102Z" transform="translate(0 0.19)"/><path class="cls-1" d="M61.3,102a5.1,5.1,0,0,0-5.1,5.3,5.19,5.19,0,0,0,5.1,5.4,5.1,5.1,0,0,0,5.1-5.3A5.19,5.19,0,0,0,61.3,102Z" transform="translate(0 0.19)"/><path class="cls-1" d="M42.9,102a5.1,5.1,0,0,0-5.1,5.3,5.19,5.19,0,0,0,5.1,5.4,5.36,5.36,0,0,0,0-10.7Z" transform="translate(0 0.19)"/><path class="cls-1" d="M148,78.2l-5-3.4L125.7,32.3h0c0-.1-.3-.4-.4-.5a1.6,1.6,0,0,1-.3-.8,15.51,15.51,0,0,1-.2-1.8,11.48,11.48,0,0,1,.1-1.9,8.42,8.42,0,0,1,.3-1.8c.1-.5.1-1.4.2-2.4a25.62,25.62,0,0,1,1.2-4.3,6.77,6.77,0,0,0,.6-1.6,5.66,5.66,0,0,0-.1-2.6,18.08,18.08,0,0,1,1-2.7,49.86,49.86,0,0,0,2.8-7.3.37.37,0,0,1,.1-.3,1.2,1.2,0,0,1-1.1-1.2c.2,1.3,2.4,1,2.9,1,.7,0,.8.3,1,.3s.5,0,.5-.1a.35.35,0,0,1,.1-.2l.2-.1c.2-.1.1-.2.1-.4s-.5-.6-.9-.9-1.2-1.1-1.3-1.2-.2-.3-.4-.4a.64.64,0,0,0-.6,0,4.05,4.05,0,0,1-.5-.9c-.2-.2-.3-.3-.5-.2-.3-.4-.8-.1-.5.2a3.11,3.11,0,0,1,.7.9h-.1c-.2-.1-.3-.2-.5-.2-.7-.2-.7-.2-.6.3a1.49,1.49,0,0,0,.3.7,4.23,4.23,0,0,0-.5.7c-.3.8-2,3.9-2.7,5.1a10.39,10.39,0,0,1-3.3,3.3,8.12,8.12,0,0,0-2.3,2.2c-.5.6-.9,1-1.2,1.3l-.1.1c-2.2,1.5-2.1,1.4-2.5,1.7a2.28,2.28,0,0,0-.9,1.3,3.39,3.39,0,0,0-.7,3.1c.1.8.3,1.5.4,2a4.09,4.09,0,0,1,0,2.7c-.4,1-.8,1.6-.7,2.1a10.06,10.06,0,0,1,.2,4c-.3,2.2-.3,2.4-.1,2.8a1.18,1.18,0,0,1,.1,1,.93.93,0,0,0,0,.6l-2.3.9L55.1,79.9,15,87.7,0,119.1H170.1Zm-121.4,31H23.5v4.6H22v-13h4.8c2.9,0,4.8,1.6,4.8,4.1C31.7,107.8,29.3,109.2,26.6,109.2ZM42.9,114a6.7,6.7,0,1,1,6.6-6.7A6.43,6.43,0,0,1,42.9,114Zm18.4,0a6.7,6.7,0,1,1,6.6-6.7A6.55,6.55,0,0,1,61.3,114Zm21.4-.2H73.9v-13h1.5v11.6h7.3Zm10.1.2a7.57,7.57,0,0,1-5.3-2.1l.9-1.1a6.2,6.2,0,0,0,4.4,1.8c1.7,0,2.9-.9,2.9-2.2s-.6-1.9-3.4-2.5c-3-.6-4.3-1.6-4.3-3.8s1.8-3.6,4.3-3.6a6.8,6.8,0,0,1,4.6,1.6l-.9,1.1a5.54,5.54,0,0,0-3.7-1.4c-1.7,0-2.8.9-2.8,2.1s.7,1.9,3.5,2.5,4.2,1.7,4.2,3.7C97.2,112.5,95.4,114,92.8,114Zm19.6-11.8h-4.3v11.6h-1.5V102.2h-4.3v-1.4h10.2v1.4Zm4-67.2a1.56,1.56,0,0,1,0-1c.1-.5-.1-1.3,0-2a17,17,0,0,1,.3-2.6,12.51,12.51,0,0,0,.6-1.8,20.67,20.67,0,0,1,.9-2.4,10.46,10.46,0,0,0,1.2-1.9,7.14,7.14,0,0,0,.2-4c-.3-1.3-1.2-2.4-2.2-2.1,1-.3,1.9.7,2.4,1.9a6,6,0,0,1,.4,2.2v.1a4,4,0,0,0,1.5.1,6.91,6.91,0,0,0,2.3-.9v-.4c0-1-.2-2.3-.1-3.1,0-.2.1-.4.1-.7a3.44,3.44,0,0,0-.1.9c0,.8.3,2.1.3,3.1a22.37,22.37,0,0,1-.2,3.8,12.83,12.83,0,0,0,.1,2.7,13.72,13.72,0,0,1-.2,3.6c-.1.6.3.8.5,1.1a1,1,0,0,1,0,.9c-.1.1,0,.3,0,.4l-.8.3c-.2-.1-.4-.3-.6-.4s-.2-.3-.3-.5-.2-.3-.3-.5a5.39,5.39,0,0,1-.7-1.3c-.2-.5-.4-1.1-.6-1.6a10.53,10.53,0,0,1-.6-3,19.88,19.88,0,0,1,.1-3.5c0-.2.1-.4.1-.6-.2,0-.4-.1-.7-.1a4.58,4.58,0,0,1-.4,1.6,6.71,6.71,0,0,1-.9,1.4v.8a4.82,4.82,0,0,0,0,1.2,5.38,5.38,0,0,0,.9,1.2,7.46,7.46,0,0,1,.7,1.2c.5,1.1,1.1,2.4,1.3,2.8a1.39,1.39,0,0,0,.7.8c.3.1.3.5.2.7v.1L117,35.6A3.39,3.39,0,0,0,116.4,35Zm7.2,79a6.7,6.7,0,1,1,6.6-6.7A6.55,6.55,0,0,1,123.6,114Zm21.1-.2-5-6.3-2.8,2.8v3.5h-1.5v-13h1.5v7.7l7.4-7.7h1.9l-5.6,5.7,5.8,7.3Z" transform="translate(0 0.19)"/><path class="cls-1" d="M26.7,102.2H23.4v5.7h3.2c2.1,0,3.6-1.1,3.6-2.9S28.8,102.2,26.7,102.2Z" transform="translate(0 0.19)"/><polygon class="cls-2" points="94.9 82.69 90.4 93.89 126.8 71.59 143 74.99 143 74.99 143 74.99 125.7 32.59 91.9 75.89 94.9 82.69"/></svg>