<svg id="Layer_1" data-name="Layer 1" xmlns="http://www.w3.org/2000/svg" viewBox="0 0 93 68.06"><defs><style>.cls-1{fill:none;}.cls-1,.cls-2,.cls-3,.cls-4{stroke:#0e1019;}.cls-1,.cls-2{stroke-linecap:round;stroke-linejoin:round;}.cls-1,.cls-2,.cls-4{stroke-width:3px;}.cls-2,.cls-4{fill:#fff;}.cls-3{fill:#0e1019;}</style></defs><title>save-money_icon</title><g id="Desktop"><g id="homepage"><g id="Group"><polygon id="Path-7" class="cls-1" points="57.5 5.12 72.5 1.5 71.83 10.5 57.5 5.12"/><path id="Combined-Shape" class="cls-2" d="M71.67,54.56l1.57,5.89a4,4,0,0,1-2.82,4.9l-5.87,1.57a4,4,0,0,1-4.9-2.83L58.53,59.9a43.08,43.08,0,0,1-19.73-.52.75.75,0,0,1-.07.12L35.59,65a4,4,0,0,1-5.46,1.46l-5.26-3a4,4,0,0,1-1.47-5.47l2.66-4.6C19.26,48.22,15,41,15,32.9,15,17.49,30.56,5,49.76,5,66.19,5,80,14.16,83.58,26.46H88a4,4,0,0,1,4,4v8.1a4,4,0,0,1-4,4H82.38A29.11,29.11,0,0,1,71.67,54.56Z" transform="translate(-0.5 -0.5)"/><circle id="Oval-3" class="cls-3" cx="71" cy="27" r="2.5"/><path id="Path-5" class="cls-1" d="M16,26a12.85,12.85,0,0,1-6.51-4.39c-2.62-3.26-1.49-8.95,2.6-7.32s-1.79,8.26-5.94,7.32Q2,20.67,2,16.61" transform="translate(-0.5 -0.5)"/><path id="Combined-Shape-2" data-name="Combined-Shape" class="cls-4" d="M44.66,13A6.64,6.64,0,0,1,43,8.6a6.5,6.5,0,1,1,13,0A6.64,6.64,0,0,1,54.34,13Z" transform="translate(-0.5 -0.5)"/><path id="Path-6" class="cls-1" d="M40,13H58" transform="translate(-0.5 -0.5)"/></g></g></g></svg>