<svg id="Layer_1" data-name="Layer 1" xmlns="http://www.w3.org/2000/svg" viewBox="0 0 27.95 27.95"><defs><style>.cls-1{fill:#30355c;}</style></defs><title>teaching</title><g id="Desktop"><g id="_01.3" data-name="01.3"><g id="teaching"><g id="open-book"><path id="Shape" class="cls-1" d="M15.89,13.25a.46.46,0,0,0,.41.26.5.5,0,0,0,.21,0,39.28,39.28,0,0,1,4.12-1.84.46.46,0,0,0,.31-.58.48.48,0,0,0-.59-.31,39.91,39.91,0,0,0-4.26,1.9A.45.45,0,0,0,15.89,13.25Z" transform="translate(0 0)"/><path id="Shape-2" data-name="Shape" class="cls-1" d="M16.3,7.92a.5.5,0,0,0,.21,0A39.28,39.28,0,0,1,20.63,6a.46.46,0,0,0,.31-.58.46.46,0,0,0-.59-.3A40.45,40.45,0,0,0,16.09,7a.45.45,0,0,0-.2.62A.46.46,0,0,0,16.3,7.92Z" transform="translate(0 0)"/><path id="Shape-3" data-name="Shape" class="cls-1" d="M27.48,7a.47.47,0,0,0-.47.46V25.62A1.39,1.39,0,0,1,25.62,27H14.44V25.94a13.67,13.67,0,0,1,4.19-.79,23.94,23.94,0,0,1,6.84.91.45.45,0,0,0,.42-.07.44.44,0,0,0,.19-.37V5.12a.47.47,0,0,0-.36-.45l-1-.2a.47.47,0,0,0-.17.92l.59.11V25a26.08,26.08,0,0,0-6.52-.78,14.84,14.84,0,0,0-4.64.89,11,11,0,0,0-4.21-.89,31.34,31.34,0,0,0-7,.8V5.48a31.34,31.34,0,0,1,7-.82,10.07,10.07,0,0,1,3.73.77V23.75a.47.47,0,0,0,.23.41.46.46,0,0,0,.47,0A54.51,54.51,0,0,1,23,20a.46.46,0,0,0,.32-.44V.47a.49.49,0,0,0-.2-.39.5.5,0,0,0-.43,0A49.1,49.1,0,0,0,15.12,3.8a.47.47,0,0,0,.5.79,48.45,48.45,0,0,1,6.74-3.44V19.23a52.61,52.61,0,0,0-7.92,3.71V5.12a.46.46,0,0,0-.26-.41,10.79,10.79,0,0,0-4.4-1,30.19,30.19,0,0,0-7.58.95.46.46,0,0,0-.34.44v20.5a.47.47,0,0,0,.47.46.32.32,0,0,0,.13,0,30.47,30.47,0,0,1,7.32-.91,10.07,10.07,0,0,1,3.73.77V27H2.33a1.4,1.4,0,0,1-1.4-1.39V7.45a.47.47,0,0,0-.93,0V25.62A2.33,2.33,0,0,0,2.33,28H25.62A2.34,2.34,0,0,0,28,25.62V7.45A.47.47,0,0,0,27.48,7Z" transform="translate(0 0)"/><path id="Shape-4" data-name="Shape" class="cls-1" d="M15.89,10.46a.45.45,0,0,0,.41.25.38.38,0,0,0,.21-.05,42.26,42.26,0,0,1,4.12-1.83.47.47,0,1,0-.28-.89,40.45,40.45,0,0,0-4.26,1.89A.47.47,0,0,0,15.89,10.46Z" transform="translate(0 0)"/><path id="Shape-5" data-name="Shape" class="cls-1" d="M15.89,16.05a.45.45,0,0,0,.41.25.38.38,0,0,0,.21-.05,39.88,39.88,0,0,1,4.12-1.83.47.47,0,1,0-.28-.89,40.45,40.45,0,0,0-4.26,1.89A.47.47,0,0,0,15.89,16.05Z" transform="translate(0 0)"/><path id="Shape-6" data-name="Shape" class="cls-1" d="M11.28,8.64A14.76,14.76,0,0,0,5,8.87a.47.47,0,0,0-.33.57.48.48,0,0,0,.45.34h.12a14,14,0,0,1,5.83-.22.47.47,0,0,0,.56-.35A.46.46,0,0,0,11.28,8.64Z" transform="translate(0 0)"/><path id="Shape-7" data-name="Shape" class="cls-1" d="M11.28,11.44A14.65,14.65,0,0,0,5,11.66a.47.47,0,0,0-.33.57.48.48,0,0,0,.45.35l.12,0a13.93,13.93,0,0,1,5.83-.21.48.48,0,0,0,.56-.35A.46.46,0,0,0,11.28,11.44Z" transform="translate(0 0)"/><path id="Shape-8" data-name="Shape" class="cls-1" d="M15.89,18.84a.46.46,0,0,0,.41.26.5.5,0,0,0,.21-.05,39.28,39.28,0,0,1,4.12-1.84.46.46,0,0,0,.31-.58.48.48,0,0,0-.59-.31,39.91,39.91,0,0,0-4.26,1.9A.45.45,0,0,0,15.89,18.84Z" transform="translate(0 0)"/><path id="Shape-9" data-name="Shape" class="cls-1" d="M11.28,14.23A15,15,0,0,0,5,14.45a.47.47,0,0,0,.12.92.25.25,0,0,0,.12,0,14.31,14.31,0,0,1,5.83-.21.47.47,0,0,0,.56-.35A.46.46,0,0,0,11.28,14.23Z" transform="translate(0 0)"/><path id="Shape-10" data-name="Shape" class="cls-1" d="M11.28,19.82A15,15,0,0,0,5,20a.47.47,0,0,0,.12.92l.12,0a14.12,14.12,0,0,1,5.83-.21.47.47,0,0,0,.56-.35A.46.46,0,0,0,11.28,19.82Z" transform="translate(0 0)"/><path id="Shape-11" data-name="Shape" class="cls-1" d="M11.28,17A14.65,14.65,0,0,0,5,17.25a.47.47,0,0,0-.33.57.48.48,0,0,0,.45.35l.12,0a14,14,0,0,1,5.83-.22.46.46,0,1,0,.21-.9Z" transform="translate(0 0)"/></g></g></g></g></svg>