<svg id="Layer_1" data-name="Layer 1" xmlns="http://www.w3.org/2000/svg" viewBox="0 0 26 23"><defs><style>.cls-1{fill:#30355c;}</style></defs><title>teamleader</title><g id="Desktop"><g id="_01.3" data-name="01.3"><g id="team-leader"><g id="Group-2"><path id="Shape" class="cls-1" d="M24.48,4H21.63V2.75a1.71,1.71,0,0,0-.52-1.24A1.76,1.76,0,0,0,19.86,1a1.84,1.84,0,0,0-.85.21A1.78,1.78,0,0,0,17.32,0a1.76,1.76,0,0,0-1.27.53l0,0a1.79,1.79,0,0,0-2.52,0,1.78,1.78,0,0,0-3,1.22V4H4.39l0,0h0l-4,2a.5.5,0,0,0,0,.9l4.05,2h0l0,0H8.15A3.61,3.61,0,0,0,9,10.23L10.73,12a2.44,2.44,0,0,1,.75,1.76V15H11a.5.5,0,0,0-.51.5v7A.5.5,0,0,0,11,23H21.12a.5.5,0,0,0,.51-.5v-7a.5.5,0,0,0-.51-.5h-.5V13.62a4.16,4.16,0,0,1,.41-1.8,5.65,5.65,0,0,0,.6-2.39V9h2.85A1.51,1.51,0,0,0,26,7.5v-2A1.51,1.51,0,0,0,24.48,4ZM19.09,2.75A.77.77,0,0,1,19.86,2a.75.75,0,0,1,.53.22.72.72,0,0,1,.23.53v2.5a.76.76,0,0,1-.76.75.77.77,0,0,1-.77-.75ZM16.55,4.5V1.75A.77.77,0,0,1,17.32,1a.76.76,0,0,1,.76.75v3.5a.76.76,0,0,1-.76.75.77.77,0,0,1-.77-.75ZM14,1.75A.76.76,0,0,1,14.78,1a.79.79,0,0,1,.54.22.75.75,0,0,1,.22.53V4H14Zm-2.54,0a.76.76,0,0,1,1.52,0V4H11.48Zm-7,6.13L1.64,6.5l2.8-1.38A2.28,2.28,0,0,1,4.44,7.88ZM7.92,7.5v.26c0,.08,0,.16,0,.24H5.56a3.3,3.3,0,0,0,0-3H9a3.42,3.42,0,0,0-.36.4A3.48,3.48,0,0,0,7.92,7.5ZM20.62,22H11.48V16h9.14Zm0-12.57a4.61,4.61,0,0,1-.51,2,5.2,5.2,0,0,0-.51,2.23V15H12.49V13.74a3.45,3.45,0,0,0-1-2.47L9.68,9.53A2.52,2.52,0,0,1,9,8.38a2.2,2.2,0,0,1-.08-.62V7.5A2.47,2.47,0,0,1,9.45,6a2.52,2.52,0,0,1,1.61-1,3,3,0,0,1,.42,0h4a2,2,0,0,1-.54.91,2,2,0,0,1-1.43.59H12a.5.5,0,0,0-.5.46.49.49,0,0,0,.42.53,3.15,3.15,0,0,1,2,1.3h0a3.17,3.17,0,0,1,.56,1.76v.95A.5.5,0,0,0,15,12h0a.51.51,0,0,0,.51-.5v-1A4.07,4.07,0,0,0,15.22,9h5.4ZM23,8H14.62a4,4,0,0,0-.53-.55,3.08,3.08,0,0,0,1.57-.83,2.35,2.35,0,0,0,.26-.29,1.79,1.79,0,0,0,2.67.14,1.78,1.78,0,0,0,3-1.22V5H23Zm2-.5a.5.5,0,0,1-.5.5H24V5h.51a.5.5,0,0,1,.5.5Z"/><path id="Shape-2" data-name="Shape" class="cls-1" d="M20.52,17h-9a.5.5,0,0,0,0,1h9a.5.5,0,0,0,0-1Z"/></g></g></g></g></svg>