<svg id="Layer_1" data-name="Layer 1" xmlns="http://www.w3.org/2000/svg" viewBox="0 0 29 28"><defs><style>.cls-1{fill:#30355c;}</style></defs><title>teamwork</title><g id="Desktop"><g id="_01.3" data-name="01.3"><g id="teamwork"><g id="_007-teamwork-copy-2" data-name="007-teamwork-copy-2"><path id="Shape" class="cls-1" d="M13.5,19a.5.5,0,0,0,0,1A1.5,1.5,0,0,1,15,21.5a.5.5,0,0,0,1,0A2.5,2.5,0,0,0,13.5,19Z" transform="translate(0 0)"/><path id="Shape-2" data-name="Shape" class="cls-1" d="M28.86,5.84h0L23,.13a.52.52,0,0,0-.68,0L19.62,2.82a.46.46,0,0,0,0,.67l.34.34-.23.23a5.53,5.53,0,0,0-2.9,1.5L15.34,7l-.83-.82a5.21,5.21,0,0,0-3.65-1.48H9.58L9,4.19l.34-.34a.46.46,0,0,0,0-.67L6.64.5A.48.48,0,0,0,6,.5L.14,6.2a.46.46,0,0,0,0,.67L2.88,9.56a.5.5,0,0,0,.68,0l.34-.34.24.23A5.39,5.39,0,0,0,5.67,12.3l3.49,3.43V18a5,5,0,0,0,1.52,3.58l.9.89v.75H11.1a.48.48,0,0,0-.48.48v3.8a.47.47,0,0,0,.48.47h8.22a.48.48,0,0,0,.49-.47v-3.8a.49.49,0,0,0-.49-.48h-.48v-.32a5.41,5.41,0,0,0,1-3.08V17a1.49,1.49,0,0,0,.83-.39L23,14.23a5,5,0,0,0,1.51-3.58V9.39l.55-.53.34.34a.5.5,0,0,0,.68,0l2.74-2.69A.46.46,0,0,0,28.86,5.84ZM3.56,8.22l-.34.33-2.05-2,5.13-5,2.05,2L8,3.85Zm2.79,3.41A4.48,4.48,0,0,1,5.07,9.15a.51.51,0,0,0-.14-.26l-.34-.34L6.47,6.7,8.35,4.86,9,5.53a.48.48,0,0,0,.34.14h1.48a4.22,4.22,0,0,1,3,1.2l.84.82L14,8.36l-.83-.82a.5.5,0,0,0-.68,0,.49.49,0,0,0,0,.68l.84.81L11.4,10.88a1.42,1.42,0,0,0-.42,1,1.44,1.44,0,0,0,.89,1.31,1.31,1.31,0,0,0-.17,1l-1.49-1.46a.49.49,0,0,0-.68,0,.47.47,0,0,0,0,.67h0l1.89,1.86a.47.47,0,0,1,.14.33.5.5,0,0,1-.49.48.45.45,0,0,1-.33-.14ZM18.84,27.05H11.58V24.2h7.26Zm0-7.2A4.39,4.39,0,0,1,18,22.5a.47.47,0,0,0-.09.28v.47H12.55V22.3a.47.47,0,0,0-.14-.33l-1.05-1A4.06,4.06,0,0,1,10.13,18V16.66a1.42,1.42,0,0,0,.94.35h0a1.44,1.44,0,0,0,1.45-1.42,1.32,1.32,0,0,0-.08-.44,1.57,1.57,0,0,0,.6.16,1.45,1.45,0,0,0,1.36,1.35A1.46,1.46,0,0,0,15.86,18h0a1.45,1.45,0,0,0,1-.42l1.44-1.41a1.41,1.41,0,0,0,.52.59Zm4.89-11a.49.49,0,0,0-.15.34v1.45a4.09,4.09,0,0,1-1.22,2.91L20,15.91a.48.48,0,0,1-.82-.34.47.47,0,0,1,.14-.33h0l2.4-2.35a.47.47,0,0,0,0-.67.5.5,0,0,0-.68,0l-1.71,1.67-.68.68-2.4,2.35a.48.48,0,0,1-.34.14.49.49,0,0,1-.48-.48.47.47,0,0,1,.14-.33l3.08-3a.47.47,0,0,0,0-.67.48.48,0,0,0-.67,0l-3.08,3a.51.51,0,0,1-.34.13.47.47,0,0,1-.35-.8l3.09-3a.46.46,0,0,0,0-.67.49.49,0,0,0-.69,0l-3.09,3a.48.48,0,0,1-.34.14h0a.48.48,0,0,1-.48-.48.43.43,0,0,1,.14-.32l3.08-3a.46.46,0,0,0,0-.67.49.49,0,0,0-.69,0l-2.08,2-.31.31a.48.48,0,0,1-.34.14.49.49,0,0,1-.48-.48.51.51,0,0,1,.13-.33l5.43-5.32A4.56,4.56,0,0,1,20,5a.5.5,0,0,0,.27-.14l.34-.33,3.77,3.69Zm2.05-.67-5.13-5,2.05-2,5.13,5Z" transform="translate(0 0)"/></g></g></g></g></svg>