<svg id="Layer_1" data-name="Layer 1" xmlns="http://www.w3.org/2000/svg" viewBox="0 0 32.26 26.24"><defs><style>.cls-1{fill:#ffead9;}</style></defs><title>twitter_logo</title><g id="Layer_2" data-name="Layer 2"><g id="Layer_2-2" data-name="Layer 2-2"><path class="cls-1" d="M32.26,3.1a13.26,13.26,0,0,1-3.8,1.05A6.59,6.59,0,0,0,31.37.48a13.25,13.25,0,0,1-4.2,1.61A6.62,6.62,0,0,0,15.72,6.62a7,7,0,0,0,.17,1.51A18.79,18.79,0,0,1,2.25,1.21a6.63,6.63,0,0,0,2,8.84,6.59,6.59,0,0,1-3-.83V9.3a6.62,6.62,0,0,0,5.31,6.49,6.1,6.1,0,0,1-1.7.21,6.43,6.43,0,0,1-1.24-.12A6.6,6.6,0,0,0,9.8,20.5a13.31,13.31,0,0,1-8.22,2.84A11.87,11.87,0,0,1,0,23.24a18.65,18.65,0,0,0,10.15,3C22.32,26.22,29,16.13,29,7.39V6.53A13.47,13.47,0,0,0,32.26,3.1Z" transform="translate(0 0)"/></g></g></svg>