<svg id="Layer_1" data-name="Layer 1" xmlns="http://www.w3.org/2000/svg" viewBox="0 0 41.1 38.22"><defs><style>.cls-1{fill:#fff;}</style></defs><title>upload_icon</title><g id="Symbols"><g id="download"><g id="Combined-Shape"><path class="cls-1" d="M40,18.67a1.65,1.65,0,0,1,1.65,1.65V30.77a8,8,0,0,1-7.94,8H8.45A8,8,0,0,1,.5,30.77V20.15a1.65,1.65,0,0,1,3.3,0V30.77a4.65,4.65,0,0,0,4.65,4.65H33.66a4.66,4.66,0,0,0,4.65-4.65V20.32A1.64,1.64,0,0,1,40,18.67Z" transform="translate(-0.5 -0.5)"/><path class="cls-1" d="M13,22.09a1.65,1.65,0,0,1,2.34-2.33l4.49,4.49V2.15a1.65,1.65,0,1,1,3.3,0v22.1l4.48-4.49a1.65,1.65,0,0,1,2.33,0,1.64,1.64,0,0,1,0,2.33l-7.29,7.3a1.64,1.64,0,0,1-2.33,0Z" transform="translate(-0.5 -0.5)"/></g></g></g></svg>