<svg id="Capa_1" data-name="Capa 1" xmlns="http://www.w3.org/2000/svg" viewBox="0 0 471.2 436.7"><defs><style>.cls-1{fill:#fff;}</style></defs><title>upload</title><path class="cls-1" d="M457.7,230.15a13.44,13.44,0,0,0-13.5,13.5v122.8A60.58,60.58,0,0,1,383.7,427H87.5A60.58,60.58,0,0,1,27,366.45V241.65a13.5,13.5,0,0,0-27,0v124.8A87.6,87.6,0,0,0,87.5,454H383.7a87.6,87.6,0,0,0,87.5-87.5V243.65A13.51,13.51,0,0,0,457.7,230.15Z" transform="translate(0 -17.25)"/><path class="cls-1" d="M159.3,126.15l62.8-62.8v273.9a13.5,13.5,0,0,0,27,0V63.35l62.8,62.8a13.59,13.59,0,0,0,9.5,4,13,13,0,0,0,9.5-4,13.46,13.46,0,0,0,0-19.1l-85.8-85.8a13.66,13.66,0,0,0-9.5-4,13.07,13.07,0,0,0-9.5,4l-85.8,85.8a13.47,13.47,0,0,0,19,19.1Z" transform="translate(0 -17.25)"/></svg>