<svg id="Layer_1" data-name="Layer 1" xmlns="http://www.w3.org/2000/svg" viewBox="0 0 145 70.8"><defs><style>.cls-1{fill:#c0c2ce;}</style></defs><title>vdab</title><polygon class="cls-1" points="0 14.8 10.1 14.8 19.9 43.4 29.9 14.8 39.9 14.8 25.7 56 14.2 56 0 14.8"/><path class="cls-1" d="M100.7,49.1V72.4h4c5,0,8.5-1.7,10.7-4a11.35,11.35,0,0,0,3.2-7.7,10.33,10.33,0,0,0-3.8-7.9c-2.4-2.2-6.1-3.6-10.6-3.6l-3.5-.1ZM91.1,81.3V40.1h15c6.7,0,12.2,2.3,16,6.1A20.07,20.07,0,0,1,128,60.7a22.81,22.81,0,0,1-2.3,9.9,18.75,18.75,0,0,1-7.1,7.7,23.56,23.56,0,0,1-12.1,3Z" transform="translate(-51.9 -25.3)"/><path class="cls-1" d="M140.9,65h10.6l-5.3-15.5Zm13.8,8.9H137.8l-2.5,7.3H125.2L139.4,40h13.9l14.2,41.2H157.2Z" transform="translate(-51.9 -25.3)"/><path class="cls-1" d="M176.2,64.1V74.5c4,0,7-.1,9-.8a4,4,0,0,0,3-4.3,4.21,4.21,0,0,0-2.8-4.4c-1.9-.8-4.5-.9-7.9-.9Zm0-17.2v9.6c3.6,0,6.1,0,7.8-.6s2.3-1.7,2.3-3.9-.7-3.6-2.3-4.3-4-.8-7.5-.8Zm-9.7,34.4V40.1h12.2a31.9,31.9,0,0,1,7.5.8,13.15,13.15,0,0,1,6.2,3.2,9.51,9.51,0,0,1,2.6,7,9.13,9.13,0,0,1-1.4,5.2,10.9,10.9,0,0,1-3.1,3.3c4.3,1.7,6.4,4.8,6.4,9.7,0,3.7-1.2,6.3-3.1,8a15.31,15.31,0,0,1-8,3.3,71.26,71.26,0,0,1-10.6.6l-8.7.1Z" transform="translate(-51.9 -25.3)"/><rect class="cls-1" x="40.2" y="64.9" width="71.3" height="5.9"/><rect class="cls-1" x="40.2" width="71.3" height="5.9"/></svg>